<svg width="800" height="600" xmlns="http://www.w3.org/2000/svg">
  <!-- Background -->
  <rect width="100%" height="100%" fill="#f5f7fa"/>
  
  <!-- Dashboard Background -->
  <rect x="50" y="50" width="700" height="500" rx="15" fill="white" stroke="#e2e8f0" stroke-width="2"/>
  
  <!-- Header Area -->
  <rect x="50" y="50" width="700" height="60" rx="15" fill="#667eea" fill-opacity="0.1"/>
  <circle cx="90" cy="80" r="20" fill="#667eea"/>
  <text x="90" y="85" font-family="Arial" font-size="14" fill="white" text-anchor="middle">P</text>
  <text x="130" y="85" font-family="Arial" font-size="16" fill="#374151" font-weight="bold">PersonalysisPro</text>
  
  <!-- Menu Items -->
  <rect x="300" y="65" width="80" height="30" rx="15" fill="#667eea"/>
  <text x="340" y="85" font-family="Arial" font-size="12" fill="white" text-anchor="middle">Dashboard</text>
  <text x="410" y="85" font-family="Arial" font-size="12" fill="#6b7280" text-anchor="middle">Surveys</text>
  <text x="480" y="85" font-family="Arial" font-size="12" fill="#6b7280" text-anchor="middle">Analytics</text>
  <text x="550" y="85" font-family="Arial" font-size="12" fill="#6b7280" text-anchor="middle">Reports</text>
  
  <!-- User Avatar -->
  <circle cx="700" cy="80" r="20" fill="#f3f4f6" stroke="#d1d5db" stroke-width="1"/>
  <text x="700" y="85" font-family="Arial" font-size="12" fill="#6b7280" text-anchor="middle">JP</text>
  
  <!-- Main Content Area -->
  <!-- Left Sidebar -->
  <rect x="70" y="130" width="200" height="400" rx="10" fill="white" stroke="#e2e8f0" stroke-width="1"/>
  <text x="170" y="160" font-family="Arial" font-size="16" fill="#374151" font-weight="bold" text-anchor="middle">Analytics Overview</text>
  
  <!-- Sidebar Items -->
  <circle cx="100" cy="200" r="8" fill="#667eea"/>
  <text x="180" y="205" font-family="Arial" font-size="14" fill="#4b5563" text-anchor="middle">Personality Traits</text>
  
  <circle cx="100" cy="240" r="8" fill="#66bb6a"/>
  <text x="180" y="245" font-family="Arial" font-size="14" fill="#4b5563" text-anchor="middle">Customer Segments</text>
  
  <circle cx="100" cy="280" r="8" fill="#ff9800"/>
  <text x="180" y="285" font-family="Arial" font-size="14" fill="#4b5563" text-anchor="middle">Product Insights</text>
  
  <circle cx="100" cy="320" r="8" fill="#f44336"/>
  <text x="180" y="325" font-family="Arial" font-size="14" fill="#4b5563" text-anchor="middle">Market Analysis</text>
  
  <circle cx="100" cy="360" r="8" fill="#9c27b0"/>
  <text x="180" y="365" font-family="Arial" font-size="14" fill="#4b5563" text-anchor="middle">Behavior Patterns</text>
  
  <!-- Main Dashboard -->
  <rect x="290" y="130" width="440" height="190" rx="10" fill="white" stroke="#e2e8f0" stroke-width="1"/>
  <text x="320" y="160" font-family="Arial" font-size="16" fill="#374151" font-weight="bold">Personality Profile Distribution</text>
  
  <!-- Chart -->
  <rect x="320" y="180" width="80" height="120" rx="5" fill="#667eea" fill-opacity="0.8"/>
  <text x="360" y="315" font-family="Arial" font-size="12" fill="#4b5563" text-anchor="middle">Analytical</text>
  
  <rect x="420" y="200" width="80" height="100" rx="5" fill="#66bb6a" fill-opacity="0.8"/>
  <text x="460" y="315" font-family="Arial" font-size="12" fill="#4b5563" text-anchor="middle">Creative</text>
  
  <rect x="520" y="150" width="80" height="150" rx="5" fill="#ff9800" fill-opacity="0.8"/>
  <text x="560" y="315" font-family="Arial" font-size="12" fill="#4b5563" text-anchor="middle">Social</text>
  
  <rect x="620" y="220" width="80" height="80" rx="5" fill="#f44336" fill-opacity="0.8"/>
  <text x="660" y="315" font-family="Arial" font-size="12" fill="#4b5563" text-anchor="middle">Practical</text>
  
  <!-- Secondary Widget -->
  <rect x="290" y="340" width="210" height="190" rx="10" fill="white" stroke="#e2e8f0" stroke-width="1"/>
  <text x="320" y="370" font-family="Arial" font-size="16" fill="#374151" font-weight="bold">Customer Segments</text>
  
  <!-- Pie Chart -->
  <circle cx="395" cy="445" r="70" fill="transparent" stroke="#e2e8f0" stroke-width="1"/>
  <path d="M395,445 L395,375 A70,70 0 0,1 453,469 Z" fill="#667eea" fill-opacity="0.8"/>
  <path d="M395,445 L453,469 A70,70 0 0,1 361,513 Z" fill="#66bb6a" fill-opacity="0.8"/>
  <path d="M395,445 L361,513 A70,70 0 0,1 328,422 Z" fill="#ff9800" fill-opacity="0.8"/>
  <path d="M395,445 L328,422 A70,70 0 0,1 395,375 Z" fill="#f44336" fill-opacity="0.8"/>
  
  <!-- Third Widget -->
  <rect x="520" y="340" width="210" height="190" rx="10" fill="white" stroke="#e2e8f0" stroke-width="1"/>
  <text x="550" y="370" font-family="Arial" font-size="16" fill="#374151" font-weight="bold">Recent Activity</text>
  
  <!-- Activity Items -->
  <circle cx="550" cy="400" r="6" fill="#667eea"/>
  <text x="635" y="404" font-family="Arial" font-size="12" fill="#4b5563">New survey completed</text>
  
  <circle cx="550" cy="430" r="6" fill="#66bb6a"/>
  <text x="635" y="434" font-family="Arial" font-size="12" fill="#4b5563">Report generated</text>
  
  <circle cx="550" cy="460" r="6" fill="#ff9800"/>
  <text x="635" y="464" font-family="Arial" font-size="12" fill="#4b5563">Insight shared</text>
  
  <circle cx="550" cy="490" r="6" fill="#f44336"/>
  <text x="635" y="494" font-family="Arial" font-size="12" fill="#4b5563">New client added</text>
  
  <circle cx="550" cy="520" r="6" fill="#9c27b0"/>
  <text x="635" y="524" font-family="Arial" font-size="12" fill="#4b5563">Survey created</text>
</svg>