
<svg width="32" height="32" viewBox="0 0 32 32" fill="none" xmlns="http://www.w3.org/2000/svg">
  <rect width="32" height="32" rx="8" fill="#4F46E5"/>
  <path d="M16 7C11.5817 7 8 10.5817 8 15C8 19.4183 11.5817 23 16 23C20.4183 23 24 19.4183 24 15C24 10.5817 20.4183 7 16 7ZM16 8.75C19.4508 8.75 22.25 11.5492 22.25 15C22.25 18.4508 19.4508 21.25 16 21.25C12.5492 21.25 9.75 18.4508 9.75 15C9.75 11.5492 12.5492 8.75 16 8.75Z" fill="white"/>
  <path d="M16 10.5C13.5147 10.5 11.5 12.5147 11.5 15C11.5 17.4853 13.5147 19.5 16 19.5C18.4853 19.5 20.5 17.4853 20.5 15C20.5 12.5147 18.4853 10.5 16 10.5ZM16 12.25C17.5188 12.25 18.75 13.4812 18.75 15C18.75 16.5188 17.5188 17.75 16 17.75C14.4812 17.75 13.25 16.5188 13.25 15C13.25 13.4812 14.4812 12.25 16 12.25Z" fill="white"/>
  <path d="M16 14C15.4477 14 15 14.4477 15 15C15 15.5523 15.4477 16 16 16C16.5523 16 17 15.5523 17 15C17 14.4477 16.5523 14 16 14Z" fill="white"/>
  <path d="M10.5 15.5C10.5 15.2239 10.2761 15 10 15C9.72386 15 9.5 15.2239 9.5 15.5V26C9.5 26.2761 9.72386 26.5 10 26.5C10.2761 26.5 10.5 26.2761 10.5 26V15.5Z" fill="white"/>
  <path d="M22.5 15.5C22.5 15.2239 22.2761 15 22 15C21.7239 15 21.5 15.2239 21.5 15.5V26C21.5 26.2761 21.7239 26.5 22 26.5C22.2761 26.5 22.5 26.2761 22.5 26V15.5Z" fill="white"/>
  <path d="M16 7C16.2761 7 16.5 6.77614 16.5 6.5V5C16.5 4.72386 16.2761 4.5 16 4.5C15.7239 4.5 15.5 4.72386 15.5 5V6.5C15.5 6.77614 15.7239 7 16 7Z" fill="white"/>
  <path d="M7 15C7 15.2761 7.22386 15.5 7.5 15.5H9C9.27614 15.5 9.5 15.2761 9.5 15C9.5 14.7239 9.27614 14.5 9 14.5H7.5C7.22386 14.5 7 14.7239 7 15Z" fill="white"/>
  <path d="M22.5 15C22.5 15.2761 22.7239 15.5 23 15.5H24.5C24.7761 15.5 25 15.2761 25 15C25 14.7239 24.7761 14.5 24.5 14.5H23C22.7239 14.5 22.5 14.7239 22.5 15Z" fill="white"/>
</svg>
